<svg width="38" height="38" viewBox="0 0 38 38" fill="none" xmlns="http://www.w3.org/2000/svg">
<path d="M38 19C38 29.4934 29.4934 38 19 38C8.50659 38 0 29.4934 0 19C0 8.50659 8.50659 0 19 0C29.4934 0 38 8.50659 38 19Z" fill="#5B5B5B"/>
<path d="M18.8488 18.6793C21.6933 18.6793 23.9993 16.0648 23.9993 12.8396C23.9993 9.6145 21.6933 7 18.8488 7C16.0042 7 13.6982 9.6145 13.6982 12.8396C13.6982 16.0648 16.0042 18.6793 18.8488 18.6793Z" stroke="white" stroke-width="3" stroke-linecap="round" stroke-linejoin="round"/>
<path d="M27.6972 30.3585C27.6972 25.8386 23.7313 22.183 18.8486 22.183C13.9659 22.183 10 25.8386 10 30.3585" stroke="white" stroke-width="3" stroke-linecap="round" stroke-linejoin="round"/>
</svg>
