<svg width="19" height="21" viewBox="0 0 19 21" fill="none" xmlns="http://www.w3.org/2000/svg">
<path d="M11.3878 1.46863L11.3887 1.47015C11.5141 1.68489 11.5812 1.9232 11.5643 2.14894L11.5643 2.14894L11.5638 2.15638C11.5317 2.65091 11.678 3.10905 11.8918 3.49348L11.8957 3.50036L11.8996 3.50715C12.6191 4.73913 14.2194 5.21935 15.4893 4.5077L15.4994 4.50201L15.5094 4.49601C16.1399 4.1165 16.9527 4.32891 17.3391 5.01636C17.3394 5.01693 17.3397 5.01751 17.34 5.01808L18.0226 6.2532L18.0225 6.25324L18.0275 6.26195C18.4272 6.96286 18.1933 7.83436 17.5438 8.21476L17.5364 8.21905L17.5292 8.2235C16.3146 8.97229 15.8956 10.6079 16.619 11.8617C16.8057 12.1853 17.0759 12.5725 17.5453 12.8186C17.752 12.9364 17.9388 13.1364 18.0862 13.3732C18.3071 13.7604 18.3134 14.2731 18.0506 14.7828L17.3421 16.0306L17.3407 16.0332C17.0883 16.4816 16.626 16.7429 16.1855 16.7429C15.9635 16.7429 15.7098 16.6752 15.5124 16.55C15.0865 16.2668 14.6216 16.1864 14.2029 16.1864C12.7543 16.1864 11.6042 17.4123 11.5626 18.8253L11.5622 18.8364V18.8474C11.5622 19.6504 10.9482 20.2499 10.1968 20.2499H8.80692C8.04291 20.2499 7.43125 19.648 7.43125 18.8474V18.8401L7.43111 18.8327C7.40318 17.4125 6.24824 16.1864 4.80085 16.1864C4.38083 16.1864 3.90964 16.2634 3.48713 16.5527C3.29145 16.6753 3.03042 16.7429 2.81825 16.7429C2.36571 16.7429 1.9046 16.4801 1.6532 16.0339C1.65307 16.0336 1.65293 16.0334 1.6528 16.0332L0.950063 14.7775C0.94983 14.7771 0.949598 14.7766 0.949366 14.7762C0.686253 14.3003 0.690261 13.7643 0.922118 13.3651L0.931049 13.3498L0.939241 13.334C1.0293 13.1605 1.22387 12.9509 1.45301 12.8161C1.91731 12.571 2.1858 12.1867 2.37446 11.8788L2.38128 11.8677L2.38772 11.8563C3.09574 10.6051 2.67894 8.97229 1.46428 8.2235L1.46435 8.2234L1.45256 8.21643C0.811012 7.83691 0.574061 6.96137 0.968732 6.25708L0.97089 6.2532L1.65295 5.01901C2.05012 4.32702 2.85686 4.11616 3.49716 4.49772L3.50415 4.50188L3.51123 4.5059C4.77494 5.22225 6.37598 4.73644 7.09386 3.50715L7.09783 3.50036L7.10165 3.49348C7.31447 3.11083 7.46041 2.65516 7.43011 2.16325C7.41866 1.91529 7.48741 1.67763 7.60585 1.48549L7.611 1.47713L7.61594 1.46863C7.86701 1.03638 8.31494 0.766609 8.788 0.749939L10.2172 0.749939C10.6757 0.749939 11.1278 1.02106 11.3878 1.46863ZM9.51208 6.78894C7.47778 6.78894 5.85972 8.4635 5.85972 10.5104C5.85972 12.5609 7.48122 14.2214 9.51208 14.2214C11.5532 14.2214 13.1338 12.5504 13.1338 10.5104C13.1338 8.47405 11.5566 6.78894 9.51208 6.78894Z" stroke="#5B5B5B" stroke-width="1.5"/>
</svg>
