<svg width="30" height="30" viewBox="0 0 30 30" fill="none" xmlns="http://www.w3.org/2000/svg">
<path d="M16.25 2.5H16.5909C20.6674 2.5 22.7057 2.5 24.1212 3.49729C24.5267 3.78304 24.8868 4.12191 25.1904 4.50361C26.25 5.83584 26.25 7.7542 26.25 11.5909V14.7727C26.25 18.4767 26.25 20.3287 25.6638 21.8078C24.7215 24.1857 22.7286 26.0614 20.202 26.9483C18.6305 27.5 16.6627 27.5 12.7273 27.5C10.4784 27.5 9.35402 27.5 8.45597 27.1848C7.01224 26.6779 5.87344 25.6061 5.33495 24.2473C5 23.4021 5 22.3438 5 20.2273V15" stroke="#FF5C00" stroke-width="2" stroke-linecap="round" stroke-linejoin="round"/>
<path d="M26.25 15C26.25 17.3012 24.3845 19.1667 22.0833 19.1667C21.2511 19.1667 20.27 19.0208 19.4608 19.2377C18.7419 19.4303 18.1803 19.9919 17.9877 20.7108C17.7708 21.52 17.9167 22.5011 17.9167 23.3333C17.9167 25.6345 16.0512 27.5 13.75 27.5" stroke="#FF5C00" stroke-width="2" stroke-linecap="round" stroke-linejoin="round"/>
<path d="M13.7505 7.5L3.75049 7.5M8.75049 2.5V12.5" stroke="#FF5C00" stroke-width="2" stroke-linecap="round"/>
</svg>
